<svg width="60" height="60" viewBox="0 0 60 60" fill="none" xmlns="http://www.w3.org/2000/svg">
<rect opacity="0.1" width="60" height="60" rx="30" transform="matrix(-1 0 0 1 60 0)" fill="white"/>
<path d="M30 24.8105C26.6777 24.8105 23.9355 27.5527 23.9355 30.875C23.9355 34.25 26.6777 36.9395 30 36.9395C33.375 36.9395 36.0645 34.25 36.0645 30.875C36.0645 27.5527 33.375 24.8105 30 24.8105ZM30 34.8301C27.8379 34.8301 26.0977 33.0898 26.0977 30.875C26.0977 28.7129 27.8379 26.9727 30 26.9727C32.2148 26.9727 33.9551 28.7129 33.9551 30.875C33.9551 33.0898 32.1621 34.8301 30 34.8301ZM22.3008 24.5996C22.3008 25.3906 22.9336 26.0234 23.7246 26.0234C24.5156 26.0234 25.1484 25.3906 25.1484 24.5996C25.1484 23.8086 24.5156 23.1758 23.7246 23.1758C22.9336 23.1758 22.3008 23.8086 22.3008 24.5996ZM18.293 26.0234C18.1875 27.9746 18.1875 33.8281 18.293 35.7793C18.3984 37.6777 18.8203 39.3125 20.1914 40.7363C21.5625 42.1074 23.25 42.5293 25.1484 42.6348C27.0996 42.7402 32.9531 42.7402 34.9043 42.6348C36.8027 42.5293 38.4375 42.1074 39.8613 40.7363C41.2324 39.3125 41.6543 37.6777 41.7598 35.7793C41.8652 33.8281 41.8652 27.9746 41.7598 26.0234C41.6543 24.125 41.2324 22.4375 39.8613 21.0664C38.4375 19.6953 36.8027 19.2734 34.9043 19.168C32.9531 19.0625 27.0996 19.0625 25.1484 19.168C23.25 19.2734 21.5625 19.6953 20.1914 21.0664C18.8203 22.4375 18.3984 24.125 18.293 26.0234ZM20.8242 37.8359C20.1914 36.3066 20.3496 32.6152 20.3496 30.875C20.3496 29.1875 20.1914 25.4961 20.8242 23.9141C21.2461 22.9121 22.0371 22.0684 23.0391 21.6992C24.6211 21.0664 28.3125 21.2246 30 21.2246C31.7402 21.2246 35.4316 21.0664 36.9609 21.6992C38.0156 22.1211 38.8066 22.9121 39.2285 23.9141C39.8613 25.4961 39.7031 29.1875 39.7031 30.875C39.7031 32.6152 39.8613 36.3066 39.2285 37.8359C38.8066 38.8906 38.0156 39.6816 36.9609 40.1035C35.4316 40.7363 31.7402 40.5781 30 40.5781C28.3125 40.5781 24.6211 40.7363 23.0391 40.1035C22.0371 39.6816 21.1934 38.8906 20.8242 37.8359Z" fill="white"/>
</svg>
