<svg width="60" height="60" viewBox="0 0 60 60" fill="none" xmlns="http://www.w3.org/2000/svg">
<rect opacity="0.1" width="60" height="60" rx="30" transform="matrix(-1 0 0 1 60 0)" fill="white"/>
<path d="M40.125 17.0625C41.0215 17.0625 41.8125 17.8535 41.8125 18.8027V39C41.8125 39.9492 41.0215 40.6875 40.125 40.6875H19.8223C18.9258 40.6875 18.1875 39.9492 18.1875 39V18.8027C18.1875 17.8535 18.9258 17.0625 19.8223 17.0625H40.125ZM25.3066 37.3125V26.0801H21.8262V37.3125H25.3066ZM23.5664 24.498C24.6738 24.498 25.5703 23.6016 25.5703 22.4941C25.5703 21.3867 24.6738 20.4375 23.5664 20.4375C22.4062 20.4375 21.5098 21.3867 21.5098 22.4941C21.5098 23.6016 22.4062 24.498 23.5664 24.498ZM38.4375 37.3125V31.1426C38.4375 28.1367 37.752 25.7637 34.2188 25.7637C32.5312 25.7637 31.3711 26.7129 30.8965 27.6094H30.8438V26.0801H27.5215V37.3125H31.002V31.7754C31.002 30.2988 31.2656 28.875 33.1113 28.875C34.9043 28.875 34.9043 30.5625 34.9043 31.8281V37.3125H38.4375Z" fill="white"/>
</svg>
