<svg width="36" height="37" viewBox="0 0 36 37" fill="none" xmlns="http://www.w3.org/2000/svg">
<path fill-rule="evenodd" clip-rule="evenodd" d="M5.51416 19.6961C5.51416 20.4002 6.085 20.9711 6.78916 20.9711L26.7053 20.9711C27.4095 20.9711 27.9803 20.4002 27.9803 19.6961C27.9803 18.9919 27.4095 18.4211 26.7053 18.4211L6.78916 18.4211C6.085 18.4211 5.51416 18.9919 5.51416 19.6961Z" fill="white"/>
<path fill-rule="evenodd" clip-rule="evenodd" d="M20.8295 28.0662C21.3274 28.5641 22.1347 28.5641 22.6326 28.0662L29.0749 21.6239C30.1586 20.5402 30.1586 18.7832 29.0749 17.6995L22.6622 11.2867C22.1642 10.7888 21.357 10.7888 20.859 11.2867C20.3611 11.7847 20.3611 12.5919 20.859 13.0899L27.2718 19.5026C27.3597 19.5905 27.3597 19.7329 27.2718 19.8208L20.8295 26.2631C20.3316 26.761 20.3316 27.5683 20.8295 28.0662Z" fill="white"/>
</svg>
