<svg width="36" height="36" viewBox="0 0 36 36" fill="none" xmlns="http://www.w3.org/2000/svg">
<path fill-rule="evenodd" clip-rule="evenodd" d="M5.51416 18.742C5.51416 19.4461 6.085 20.017 6.78916 20.017L26.7053 20.017C27.4095 20.017 27.9803 19.4461 27.9803 18.742C27.9803 18.0378 27.4095 17.467 26.7053 17.467L6.78916 17.467C6.085 17.467 5.51416 18.0378 5.51416 18.742Z" fill="#0A72AD"/>
<path fill-rule="evenodd" clip-rule="evenodd" d="M20.8296 27.1121C21.3275 27.61 22.1348 27.61 22.6327 27.1121L29.075 20.6698C30.1587 19.5861 30.1587 17.8291 29.075 16.7454L22.6622 10.3326C22.1643 9.83472 21.357 9.83472 20.8591 10.3326C20.3612 10.8306 20.3612 11.6378 20.8591 12.1358L27.2718 18.5485C27.3597 18.6364 27.3597 18.7788 27.2718 18.8667L20.8296 25.309C20.3316 25.8069 20.3316 26.6142 20.8296 27.1121Z" fill="#0A72AD"/>
</svg>
