<svg width="325" height="247" viewBox="0 0 325 247" fill="none" xmlns="http://www.w3.org/2000/svg">
<path d="M203.327 131.633L203.325 131.64C203.301 131.737 203.276 131.834 203.251 131.931H196.587H196.587C195.848 131.932 195.144 132.237 194.627 132.774C194.112 133.31 193.825 134.033 193.824 134.782V134.783V155.534C193.63 155.909 193.433 156.281 193.235 156.655C192.12 158.766 190.959 160.854 189.771 162.916C170.68 195.963 144.159 223.691 112.497 243.728L113.785 240.707L114.059 240.062L113.36 240.012L111.252 239.861L111.252 239.861C95.9708 238.775 80.6802 237.574 65.8066 234.017C50.2505 230.296 35.0652 223.85 22.9127 213.184C10.7569 202.515 1.86554 187.295 0.632095 170.857C0.221198 165.211 0.770721 159.534 2.2553 154.087L2.25552 154.086C5.09684 143.593 11.2981 134.181 20.2123 128.622C34.2174 119.89 52.5469 121.643 67.4226 128.962L67.6433 128.513L67.4226 128.962C82.3023 136.281 94.4288 148.404 106.335 160.39L107.126 159.793C95.0775 138.322 78.3013 120.125 58.1722 106.694L58.1716 106.693C56.7137 105.723 55.2421 104.78 53.7741 103.839C48.5036 100.461 43.2788 97.1125 38.8956 92.6696C33.3083 87.0064 29.2447 79.1227 30.2185 71.1943C31.3258 62.1915 38.4358 55.2991 45.7116 49.9062L45.4138 49.5045L45.7116 49.9062C48.611 47.7569 51.6021 45.7194 54.6849 43.8468L54.6854 43.8465C63.3856 38.5482 72.7769 34.5639 82.6779 33.0878L82.678 33.0878C96.0897 31.0853 110.539 34.1306 120.775 43.2583C132.309 53.5465 137.079 70.1832 136.626 86.1688L136.576 87.9189L137.542 86.459C144.686 75.668 155.655 67.4806 167.973 67.1339C180.761 66.7773 192.977 75.184 199.426 86.7722C205.871 98.355 207.042 112.584 204.622 125.792C204.262 127.759 203.83 129.706 203.327 131.633Z" fill="#399FD8" stroke="#0775B4"/>
<path d="M181.934 72.0163L181.934 72.0164C181.869 73.2264 181.798 74.4359 181.72 75.645C181.077 85.6064 180.004 95.5097 178.501 105.355C177.746 110.301 176.883 115.226 175.911 120.128C175.015 124.651 174.067 129.163 172.914 133.61C170.845 141.59 167.928 149.535 162.56 155.635C157.577 161.297 150.825 164.782 143.768 166.87C136.519 169.015 129.6 169.83 122.079 170.524C122.042 170.528 122.005 170.531 121.969 170.535C121.967 170.526 121.966 170.516 121.966 170.503C121.967 170.454 121.983 170.413 121.999 170.392C122.006 170.383 122.011 170.379 122.015 170.377C122.018 170.375 122.026 170.371 122.045 170.369C122.515 170.326 122.821 170.282 123.12 170.238L123.148 170.234C123.433 170.192 123.715 170.151 124.144 170.109C131.587 169.373 139.142 168.381 146.319 165.885C153.383 163.428 159.958 159.308 164.518 152.979C169.362 146.254 171.794 138.071 173.661 130.086C175.866 120.656 177.604 111.097 178.962 101.498L178.962 101.498C180.338 91.727 181.291 81.9177 181.821 72.07C181.822 72.0398 181.828 72.0242 181.832 72.018C181.835 72.0117 181.838 72.0075 181.842 72.0038C181.853 71.9947 181.877 71.9834 181.908 71.9834C181.919 71.9834 181.928 71.9848 181.933 71.9863C181.934 71.9929 181.934 72.0027 181.934 72.0163Z" fill="white" stroke="#0775B4"/>
<path d="M2.43587 154.309L2.43363 154.309C2.41559 154.308 2.40878 154.304 2.40808 154.304C2.40807 154.304 2.40805 154.304 2.40804 154.303C2.40704 154.303 2.4042 154.301 2.39956 154.295C2.38772 154.28 2.37164 154.245 2.3716 154.196C2.37158 154.172 2.37511 154.156 2.37855 154.145L2.37875 154.145C3.54243 154.21 4.70488 154.294 5.86611 154.396C25.1209 156.108 43.7143 162.572 60.1193 173.258C67.932 178.36 75.1557 184.389 81.6467 191.224C88.036 197.956 93.6926 205.408 98.5126 213.444L98.5126 213.444C103.333 221.479 107.277 230.055 110.268 239.011C110.272 239.025 110.274 239.035 110.275 239.042C110.27 239.046 110.261 239.051 110.246 239.055C110.214 239.064 110.188 239.059 110.177 239.054C110.173 239.052 110.17 239.05 110.166 239.046C110.163 239.042 110.153 239.03 110.144 239.003C109.78 237.911 109.402 236.823 109.009 235.742L109.009 235.741C105.787 226.903 101.628 218.47 96.6084 210.601C91.6119 202.752 85.7998 195.505 79.2779 188.992L79.2778 188.992C72.5571 182.284 65.1097 176.42 57.0868 171.519L57.0867 171.519C48.7846 166.451 39.9397 162.425 30.735 159.524C21.5338 156.616 12.0337 154.866 2.43587 154.309Z" fill="white" stroke="#0775B4"/>
<path d="M54.5425 44.3071L54.5425 44.3071C60.7009 46.3553 66.5375 49.3381 71.8655 53.1595L71.8669 53.1604C77.3035 57.0862 82.2612 61.6906 86.6304 66.8714C91.2274 72.3127 95.3141 78.2026 98.8346 84.46C102.565 91.0603 105.805 97.95 108.528 105.068C111.329 112.372 113.685 119.853 115.581 127.468L54.5425 44.3071ZM54.5425 44.3071L54.5409 44.3066M54.5425 44.3071L54.5409 44.3066M54.5409 44.3066C54.5212 44.3001 54.5144 44.2939 54.5133 44.2929L54.5133 44.2928C54.5118 44.2915 54.5092 44.2887 54.5061 44.2815C54.4983 44.2635 54.4921 44.2254 54.5041 44.1794C54.5096 44.1584 54.5167 44.1441 54.5223 44.135M54.5409 44.3066L54.6802 43.6605C56.1872 44.1542 57.6739 44.7062 59.1403 45.3166M59.1403 45.3166L58.9463 45.7774C58.9466 45.7775 58.947 45.7776 58.9473 45.7778M59.1403 45.3166L58.9482 45.7782C58.9479 45.778 58.9476 45.7779 58.9473 45.7778M59.1403 45.3166C65.1413 47.8432 70.7725 51.24 75.8684 55.4073M58.9473 45.7778C57.4931 45.1725 56.0189 44.6252 54.5245 44.1357L54.5239 44.1355C54.5234 44.1353 54.5228 44.1351 54.5223 44.135M58.9473 45.7778C64.9031 48.2855 70.4928 51.6572 75.5517 55.7942M54.5223 44.135C54.5236 44.1329 54.5248 44.1311 54.5258 44.1296C54.5263 44.129 54.5267 44.1284 54.5271 44.1279C54.5302 44.1238 54.5322 44.1219 54.5321 44.1218C54.5321 44.1218 54.5319 44.122 54.5313 44.1223C54.5304 44.1229 54.5294 44.1235 54.5283 44.1242C54.528 44.1243 54.5278 44.1245 54.5275 44.1246C54.5227 44.1271 54.5161 44.1296 54.509 44.1305C54.5058 44.131 54.5041 44.1309 54.5041 44.1308C54.5041 44.1308 54.5098 44.131 54.5223 44.135ZM75.5517 55.7942C80.8062 60.104 85.5659 65.0366 89.7353 70.4932L89.7357 70.4937C94.1324 76.233 98.0244 82.3762 101.364 88.8484L101.365 88.8488C104.875 95.6377 107.909 102.684 110.443 109.933L110.443 109.934C113.073 117.426 115.255 125.082 116.975 132.858L116.975 132.858C118.699 140.623 120.004 148.484 120.882 156.402L120.882 156.403C121.761 164.224 122.209 172.09 122.225 179.964V179.965C122.251 187.457 121.82 194.944 120.935 202.379L120.935 202.38C120.137 209.227 118.833 215.999 117.034 222.634L117.033 222.635C115.433 228.585 113.245 234.344 110.505 239.819C110.503 239.824 110.501 239.827 110.499 239.83C110.493 239.828 110.487 239.825 110.48 239.821C110.449 239.802 110.431 239.776 110.424 239.757C110.421 239.749 110.42 239.742 110.421 239.734C110.421 239.726 110.424 239.71 110.437 239.685C111.089 238.405 111.706 237.106 112.287 235.789L112.289 235.786C114.794 229.992 116.757 223.959 118.15 217.77C118.15 217.77 118.15 217.77 118.15 217.77L117.663 217.66M75.5517 55.7942L121.394 196.97M75.5517 55.7942C75.5516 55.794 75.5515 55.7939 75.5513 55.7938L75.8684 55.4073M75.5517 55.7942C75.5518 55.7942 75.5518 55.7943 75.5519 55.7943L75.8684 55.4073M75.5517 55.7942L90.1326 70.1896C85.9399 64.7025 81.1532 59.742 75.8684 55.4073M117.663 217.66C119.223 210.841 120.304 203.912 120.896 196.927M117.663 217.66C116.276 223.819 114.323 229.823 111.83 235.587M117.663 217.66L111.83 235.587M120.896 196.927L121.394 196.97M120.896 196.927C121.543 189.441 121.755 181.921 121.532 174.408M120.896 196.927L121.394 196.969C121.394 196.97 121.394 196.97 121.394 196.97M121.394 196.97L121.532 174.408M121.532 174.408C121.31 166.55 120.664 158.713 119.595 150.932L121.532 174.408ZM111.83 235.587C111.252 236.896 110.639 238.186 109.991 239.458C109.655 240.118 110.614 240.706 110.951 240.045C113.706 234.539 115.907 228.748 117.516 222.765L111.83 235.587Z" fill="white" stroke="#0775B4"/>
<path d="M214.851 243.5C214.604 243.569 214.289 243.641 213.902 243.714C212.717 243.937 210.954 244.155 208.662 244.364C204.084 244.782 197.451 245.159 189.245 245.475C172.834 246.108 150.159 246.5 125.109 246.5C100.06 246.5 77.3845 246.108 60.9741 245.475C52.7677 245.159 46.1345 244.782 41.5565 244.364C39.265 244.155 37.5017 243.937 36.3171 243.714C35.9298 243.641 35.6143 243.569 35.3674 243.5C35.6143 243.431 35.9298 243.359 36.3171 243.286C37.5017 243.063 39.265 242.845 41.5565 242.636C46.1345 242.218 52.7677 241.841 60.9741 241.525C77.3845 240.892 100.06 240.5 125.109 240.5C150.159 240.5 172.834 240.892 189.245 241.525C197.451 241.841 204.084 242.218 208.662 242.636C210.954 242.845 212.717 243.063 213.902 243.286C214.289 243.359 214.604 243.431 214.851 243.5ZM34.7956 243.277C34.7957 243.277 34.7971 243.278 34.7994 243.28C34.7966 243.278 34.7955 243.277 34.7956 243.277ZM34.7956 243.723C34.7955 243.723 34.7966 243.722 34.7994 243.72C34.7971 243.722 34.7957 243.723 34.7956 243.723ZM215.419 243.72C215.422 243.722 215.423 243.723 215.423 243.723C215.423 243.723 215.422 243.722 215.419 243.72ZM215.419 243.28C215.422 243.278 215.423 243.277 215.423 243.277C215.423 243.277 215.422 243.278 215.419 243.28Z" fill="#CFD1F8" stroke="#0775B4"/>
<path d="M145.527 222.441L140.22 236.375L137.319 235.58L140.927 221.181L145.527 222.441Z" fill="#FFB8B8" stroke="#0775B4"/>
<path d="M146.017 239.139C146.512 240.023 146.702 241.056 146.561 242.066L135.576 239.056L136.545 235.188L143.411 237.069C144.504 237.369 145.443 238.111 146.017 239.139Z" fill="#2F2E41" stroke="#0775B4"/>
<path d="M173.942 237.634L170.994 238.185L168.491 223.53L173.168 222.656L173.942 237.634Z" fill="#FFB8B8" stroke="#0775B4"/>
<path d="M181.48 238.864C181.699 239.222 181.869 239.611 181.984 240.018L170.806 242.106L170.134 238.168L177.12 236.863C177.671 236.76 178.237 236.771 178.784 236.897C179.332 237.022 179.853 237.26 180.315 237.597C180.778 237.935 181.174 238.365 181.48 238.864Z" fill="#2F2E41" stroke="#0775B4"/>
<mask id="path-10-inside-1_761_1372" fill="white">
<path d="M162.951 121.209C163.907 121.452 164.684 122.47 165.151 123.65C165.582 124.889 165.873 126.176 166.02 127.485C166.387 129.923 166.739 132.563 165.98 134.821C165.091 137.468 162.722 138.854 160.666 138.202C158.611 137.551 156.977 135.106 156.418 132.291C155.91 129.447 156.237 126.508 157.358 123.863C157.942 122.473 158.746 121.19 159.816 120.563C160.34 120.232 160.966 120.12 161.566 120.251C162.166 120.381 162.696 120.745 163.051 121.268"/>
</mask>
<path d="M162.951 121.209C163.907 121.452 164.684 122.47 165.151 123.65C165.582 124.889 165.873 126.176 166.02 127.485C166.387 129.923 166.739 132.563 165.98 134.821C165.091 137.468 162.722 138.854 160.666 138.202C158.611 137.551 156.977 135.106 156.418 132.291C155.91 129.447 156.237 126.508 157.358 123.863C157.942 122.473 158.746 121.19 159.816 120.563C160.34 120.232 160.966 120.12 161.566 120.251C162.166 120.381 162.696 120.745 163.051 121.268" fill="#2F2E41"/>
<path d="M165.151 123.65L166.096 123.322L166.089 123.302L166.081 123.282L165.151 123.65ZM166.02 127.485L165.026 127.596L165.028 127.615L165.031 127.634L166.02 127.485ZM165.98 134.821L166.928 135.139L166.928 135.139L165.98 134.821ZM156.418 132.291L155.434 132.467L155.435 132.476L155.437 132.486L156.418 132.291ZM157.358 123.863L158.279 124.253L158.28 124.25L157.358 123.863ZM159.816 120.563L160.322 121.426L160.336 121.417L160.35 121.408L159.816 120.563ZM162.705 122.178C162.922 122.233 163.19 122.397 163.476 122.731C163.76 123.06 164.019 123.506 164.221 124.018L166.081 123.282C165.816 122.614 165.453 121.961 164.992 121.426C164.535 120.894 163.936 120.428 163.198 120.24L162.705 122.178ZM164.206 123.978C164.612 125.146 164.888 126.361 165.026 127.596L167.014 127.374C166.859 125.991 166.551 124.631 166.096 123.322L164.206 123.978ZM165.031 127.634C165.404 130.115 165.701 132.511 165.032 134.502L166.928 135.139C167.776 132.615 167.369 129.731 167.009 127.336L165.031 127.634ZM165.032 134.502C164.264 136.79 162.358 137.69 160.969 137.249L160.364 139.156C163.085 140.018 165.918 138.145 166.928 135.139L165.032 134.502ZM160.969 137.249C160.209 137.009 159.45 136.407 158.799 135.482C158.152 134.564 157.654 133.382 157.399 132.096L155.437 132.486C155.741 134.015 156.339 135.463 157.163 136.634C157.983 137.798 159.068 138.745 160.364 139.156L160.969 137.249ZM157.403 132.115C156.928 129.461 157.234 126.719 158.279 124.253L156.437 123.473C155.24 126.298 154.891 129.433 155.434 132.467L157.403 132.115ZM158.28 124.25C158.842 122.91 159.542 121.883 160.322 121.426L159.31 119.701C157.951 120.498 157.041 122.036 156.436 123.476L158.28 124.25ZM160.35 121.408C160.655 121.216 161.012 121.154 161.353 121.228L161.779 119.274C160.919 119.086 160.025 119.248 159.281 119.718L160.35 121.408ZM161.353 121.228C161.694 121.302 162.008 121.511 162.222 121.829L163.879 120.708C163.385 119.978 162.638 119.461 161.779 119.274L161.353 121.228Z" fill="#0775B4" mask="url(#path-10-inside-1_761_1372)"/>
<path d="M175.202 234.175L169.993 236.243L158.884 190.436L158.497 188.841L157.929 190.38L142.386 232.468L136.648 232.801C136.654 232.758 136.661 232.713 136.667 232.665C136.736 232.182 136.838 231.474 136.969 230.571C137.233 228.765 137.617 226.184 138.099 223.082C139.063 216.877 140.419 208.59 141.986 200.258C143.554 191.923 145.331 183.554 147.138 177.181C148.042 173.992 148.948 171.322 149.831 169.41C150.274 168.453 150.701 167.705 151.108 167.182C151.504 166.673 151.832 166.439 152.08 166.369L167.91 165.868L175.202 234.175Z" fill="#2F2E41" stroke="#0775B4"/>
<path d="M169.548 121.781C169.548 126.083 166.218 129.533 162.157 129.533C158.096 129.533 154.766 126.083 154.766 121.781C154.766 117.478 158.096 114.028 162.157 114.028C166.218 114.028 169.548 117.478 169.548 121.781Z" fill="#FFB8B8" stroke="#0775B4"/>
<mask id="path-14-inside-2_761_1372" fill="white">
<path d="M160.093 129.283C161.329 128.537 161.461 126.738 161.293 125.255C161.125 123.773 160.844 122.12 161.678 120.908C162.672 119.462 164.67 119.433 166.373 119.386C168.076 119.338 170.15 118.817 170.592 117.096C170.883 115.959 170.259 114.739 169.364 114.025C168.469 113.311 167.349 112.996 166.26 112.696C163.825 112.025 161.311 111.348 158.817 111.717C156.347 112.082 154.115 113.45 152.602 115.523C151.089 117.597 150.417 120.211 150.733 122.798C151.136 126.108 151.722 127.553 151.337 129.013C150.622 131.731 147.536 133.477 147.475 136.296C147.427 138.501 149.289 140.201 151.106 141.321C152.547 142.209 154.102 142.962 155.763 143.17C157.424 143.378 159.212 142.98 160.45 141.803C162.045 140.285 162.44 137.748 161.982 135.543C161.525 133.338 160.351 131.38 159.19 129.479"/>
</mask>
<path d="M160.093 129.283C161.329 128.537 161.461 126.738 161.293 125.255C161.125 123.773 160.844 122.12 161.678 120.908C162.672 119.462 164.67 119.433 166.373 119.386C168.076 119.338 170.15 118.817 170.592 117.096C170.883 115.959 170.259 114.739 169.364 114.025C168.469 113.311 167.349 112.996 166.26 112.696C163.825 112.025 161.311 111.348 158.817 111.717C156.347 112.082 154.115 113.45 152.602 115.523C151.089 117.597 150.417 120.211 150.733 122.798C151.136 126.108 151.722 127.553 151.337 129.013C150.622 131.731 147.536 133.477 147.475 136.296C147.427 138.501 149.289 140.201 151.106 141.321C152.547 142.209 154.102 142.962 155.763 143.17C157.424 143.378 159.212 142.98 160.45 141.803C162.045 140.285 162.44 137.748 161.982 135.543C161.525 133.338 160.351 131.38 159.19 129.479" fill="#2F2E41"/>
<path d="M161.678 120.908L160.854 120.342V120.342L161.678 120.908ZM170.592 117.096L171.56 117.344V117.344L170.592 117.096ZM166.26 112.696L165.995 113.66V113.66L166.26 112.696ZM158.817 111.717L158.963 112.706L158.963 112.706L158.817 111.717ZM150.733 122.798L149.74 122.919L149.74 122.919L150.733 122.798ZM151.337 129.013L152.304 129.267H152.304L151.337 129.013ZM147.475 136.296L148.474 136.318V136.318L147.475 136.296ZM151.106 141.321L151.63 140.47H151.63L151.106 141.321ZM160.45 141.803L161.139 142.527L161.139 142.527L160.45 141.803ZM160.609 130.139C161.542 129.577 161.993 128.65 162.195 127.768C162.396 126.888 162.378 125.944 162.287 125.143L160.3 125.368C160.377 126.049 160.377 126.746 160.245 127.322C160.114 127.897 159.88 128.243 159.576 128.427L160.609 130.139ZM162.287 125.143C162.198 124.356 162.098 123.664 162.11 122.998C162.121 122.349 162.24 121.855 162.502 121.475L160.854 120.342C160.282 121.173 160.125 122.112 160.11 122.963C160.096 123.797 160.221 124.672 160.3 125.368L162.287 125.143ZM162.502 121.475C162.807 121.031 163.288 120.758 163.986 120.596C164.705 120.43 165.521 120.41 166.401 120.385L166.345 118.386C165.522 118.409 164.488 118.427 163.534 118.648C162.559 118.874 161.543 119.338 160.854 120.342L162.502 121.475ZM166.401 120.385C167.325 120.36 168.413 120.206 169.363 119.781C170.327 119.351 171.24 118.593 171.56 117.344L169.623 116.848C169.502 117.32 169.157 117.683 168.548 117.955C167.925 118.234 167.124 118.364 166.345 118.386L166.401 120.385ZM171.56 117.344C171.981 115.705 171.08 114.114 169.987 113.243L168.741 114.807C169.439 115.364 169.786 116.213 169.623 116.848L171.56 117.344ZM169.987 113.243C168.906 112.381 167.583 112.023 166.526 111.732L165.995 113.66C167.115 113.969 168.031 114.241 168.741 114.807L169.987 113.243ZM166.526 111.732C164.126 111.071 161.407 110.323 158.671 110.728L158.963 112.706C161.214 112.373 163.524 112.979 165.995 113.66L166.526 111.732ZM158.671 110.728C155.928 111.133 153.46 112.651 151.794 114.934L153.409 116.113C154.769 114.249 156.767 113.031 158.963 112.706L158.671 110.728ZM151.794 114.934C150.129 117.216 149.394 120.084 149.74 122.919L151.725 122.677C151.44 120.337 152.048 117.978 153.409 116.113L151.794 114.934ZM149.74 122.919C149.944 124.588 150.204 125.86 150.342 126.753C150.487 127.684 150.507 128.238 150.37 128.758L152.304 129.267C152.552 128.328 152.471 127.43 152.319 126.446C152.16 125.423 151.925 124.318 151.725 122.677L149.74 122.919ZM150.37 128.758C150.077 129.874 149.296 130.802 148.368 132.007C147.509 133.124 146.514 134.502 146.475 136.274L148.474 136.318C148.497 135.271 149.076 134.367 149.953 133.226C150.763 132.174 151.882 130.87 152.304 129.267L150.37 128.758ZM146.475 136.274C146.444 137.682 147.029 138.883 147.816 139.848C148.599 140.806 149.62 141.58 150.581 142.172L151.63 140.47C150.775 139.942 149.956 139.306 149.365 138.583C148.78 137.866 148.457 137.114 148.474 136.318L146.475 136.274ZM150.581 142.172C152.067 143.088 153.768 143.928 155.639 144.163L155.887 142.178C154.437 141.996 153.027 141.33 151.63 140.47L150.581 142.172ZM155.639 144.163C157.518 144.398 159.632 143.961 161.139 142.527L159.76 141.078C158.793 141.999 157.331 142.359 155.887 142.178L155.639 144.163ZM161.139 142.527C163.074 140.686 163.46 137.743 162.962 135.34L161.003 135.746C161.42 137.753 161.017 139.883 159.76 141.078L161.139 142.527ZM162.962 135.34C162.463 132.939 161.192 130.839 160.043 128.958L158.336 130C159.51 131.922 160.586 133.737 161.003 135.746L162.962 135.34Z" fill="#0775B4" mask="url(#path-14-inside-2_761_1372)"/>
<path d="M167.916 166.855L151.546 166.546C151.558 166.493 151.571 166.437 151.584 166.377C151.704 165.826 151.857 164.973 151.998 163.747C152.279 161.295 152.511 157.344 152.325 151.315C152.142 145.387 153.422 140.708 154.744 137.515C155.405 135.919 156.076 134.694 156.579 133.871C156.831 133.46 157.041 133.15 157.186 132.944C157.206 132.916 157.224 132.891 157.241 132.867L165.339 133.972C170.658 138.272 170.841 145.495 169.896 152.335C169.582 154.605 169.152 156.786 168.759 158.78C168.557 159.804 168.365 160.778 168.204 161.689C167.968 163.018 167.797 164.216 167.771 165.207C167.754 165.805 167.788 166.369 167.916 166.855Z" fill="#0775B4" stroke="#0775B4"/>
<path d="M169.222 169.432L169.407 169.638L169.68 169.59C169.828 169.564 169.977 169.551 170.127 169.55C170.704 169.55 171.27 169.733 171.749 170.079C172.229 170.426 172.6 170.919 172.809 171.497C173.019 172.075 173.055 172.707 172.913 173.308C172.771 173.908 172.458 174.446 172.02 174.851C171.582 175.256 171.039 175.51 170.465 175.582C169.891 175.653 169.309 175.541 168.795 175.258C168.28 174.974 167.857 174.531 167.584 173.985C167.311 173.438 167.203 172.815 167.276 172.201L167.308 171.931L167.099 171.757L151.681 158.932L154.692 151.234L159.199 153.347L158.204 156.815L158.128 157.081L158.313 157.287L169.222 169.432Z" fill="#FFB8B8" stroke="#0775B4"/>
<path d="M190.762 139.383L190.986 139.248L191.003 138.987C191.013 138.827 191.035 138.668 191.069 138.512C191.205 137.91 191.511 137.369 191.944 136.958C192.378 136.548 192.918 136.288 193.491 136.209C194.064 136.13 194.648 136.235 195.165 136.512L195.4 136.072L195.165 136.512C195.683 136.789 196.111 137.226 196.39 137.769C196.669 138.312 196.784 138.933 196.718 139.549C196.652 140.165 196.409 140.742 196.023 141.205C195.638 141.668 195.131 141.993 194.57 142.143C194.009 142.293 193.418 142.261 192.874 142.051L192.601 141.945L192.375 142.131L176.932 154.872L170.467 150.053L173.481 145.926L176.444 147.71L176.702 147.865L176.96 147.71L190.762 139.383Z" fill="#FFB8B8" stroke="#0775B4"/>
<path d="M40.9305 204.343C39.0717 203.238 37.545 201.401 36.9399 199.257C37.4041 199.228 37.8466 199.046 38.1698 198.75C38.4323 198.509 38.6272 198.181 38.6692 197.789C38.7113 197.394 38.5933 196.99 38.3292 196.608L38.3207 196.596L38.3115 196.584C38.1302 196.352 37.9481 196.122 37.7668 195.893L37.765 195.891C37.6717 195.773 37.5786 195.655 37.4858 195.537C38.3442 194.684 39.1747 194.43 39.872 194.516C40.6595 194.612 41.4161 195.157 41.9659 196.081C43.0635 197.926 43.2204 201.13 41.0547 204.168L40.9305 204.343ZM46.8439 214.799C46.3776 213.488 45.8403 212.204 45.2331 210.957L45.9009 210.763C45.6384 208.432 45.9047 206.069 46.6772 203.869C47.3119 202.216 48.4042 200.775 49.5355 199.284C49.7963 198.94 50.059 198.593 50.3188 198.241L50.3191 198.24C51.6143 196.479 54.2681 197.106 54.7073 199.22C53.9654 199.648 53.5615 200.437 53.544 201.193C53.5337 201.636 53.6552 202.09 53.941 202.463C54.1469 202.733 54.4261 202.944 54.7692 203.078C54.2391 208.007 51.176 212.521 46.9816 214.726L46.8439 214.799ZM48.4205 235.019C48.71 233.501 48.9047 231.966 49.0065 230.424L49.7461 230.494C50.091 227.659 51.6912 225.874 53.7863 224.476C54.84 223.772 56.0087 223.175 57.1985 222.593C57.4189 222.485 57.6405 222.378 57.8622 222.27C58.8267 221.803 59.7934 221.335 60.6802 220.828L60.6987 220.818L60.7162 220.806C60.9072 220.674 61.1276 220.605 61.3508 220.605C61.5739 220.605 61.7946 220.673 61.9858 220.804C62.1775 220.935 62.3323 221.125 62.4279 221.353C62.4911 221.504 62.5261 221.666 62.5315 221.83C62.0075 222.08 61.5047 222.376 61.0283 222.715L61.0253 222.717C60.6909 222.959 60.4396 223.3 60.3016 223.692C60.1637 224.083 60.1442 224.509 60.2455 224.912C60.3468 225.315 60.5649 225.68 60.8744 225.953C61.0198 226.081 61.182 226.187 61.3556 226.266C59.1698 231.483 53.931 234.984 48.5435 235.018L48.4205 235.019ZM45.134 242.308L45.479 242.421L40.5322 242.471L40.3171 242.208C40.0734 241.91 39.8453 241.639 39.629 241.383C39.3559 241.059 39.1017 240.757 38.8585 240.45C38.4347 239.916 38.0959 239.429 37.8573 238.924C37.4246 238.008 37.291 236.972 37.7433 235.41C37.9301 235.367 38.1082 235.289 38.2689 235.18C38.5411 234.994 38.7485 234.728 38.8673 234.421C38.986 234.114 39.0119 233.777 38.9423 233.455C38.8838 233.184 38.7596 232.932 38.5802 232.723L38.5735 232.697C38.7528 232.277 39.035 231.918 39.3884 231.657L39.0912 231.255L39.3884 231.657C39.7792 231.368 40.2399 231.211 40.7115 231.201C41.1831 231.192 41.6488 231.331 42.0492 231.603C42.4499 231.876 42.7679 232.272 42.9586 232.743L42.9604 232.747C43.1139 233.115 43.2707 233.482 43.427 233.847C43.9481 235.063 44.4635 236.267 44.8292 237.501C45.3004 239.092 45.5041 240.681 45.134 242.308Z" fill="#6F65FA" stroke="#0775B4"/>
<path d="M207.011 240.113C206.681 241.226 206.541 242.327 206.79 243.448L209.876 243.479L209.986 243.344C210.164 243.127 210.327 242.933 210.481 242.75C210.675 242.521 210.853 242.309 211.027 242.09C211.327 241.712 211.561 241.373 211.725 241.027C212.009 240.425 212.108 239.74 211.82 238.695C211.699 238.659 211.585 238.604 211.479 238.532C211.26 238.383 211.094 238.169 210.999 237.924C210.904 237.678 210.884 237.409 210.939 237.152C210.98 236.961 211.062 236.782 211.18 236.628C211.061 236.38 210.887 236.169 210.675 236.013C210.419 235.824 210.119 235.721 209.812 235.715C209.506 235.709 209.202 235.799 208.94 235.978C208.678 236.156 208.468 236.416 208.342 236.727L208.342 236.727L208.341 236.731C208.23 236.998 208.117 237.261 208.005 237.523C207.633 238.391 207.269 239.24 207.011 240.113ZM195.253 232.113C196.81 235.693 200.418 238.095 204.136 238.155C203.946 237.124 203.817 236.081 203.748 235.034L203.22 235.085C202.98 233.115 201.872 231.872 200.397 230.887C199.653 230.391 198.825 229.967 197.976 229.552C197.82 229.475 197.662 229.399 197.504 229.323C196.815 228.989 196.119 228.651 195.481 228.287L195.462 228.277L195.445 228.265C195.332 228.187 195.203 228.147 195.073 228.147C194.942 228.146 194.813 228.186 194.7 228.263C194.586 228.341 194.493 228.455 194.435 228.593C194.408 228.657 194.39 228.724 194.38 228.793C194.73 228.965 195.066 229.166 195.386 229.394L195.389 229.396C195.652 229.586 195.849 229.855 195.957 230.161C196.065 230.467 196.08 230.8 196.001 231.115C195.922 231.43 195.751 231.716 195.508 231.931C195.429 232 195.343 232.062 195.253 232.113ZM205.356 223.653C205.672 222.781 206.032 221.926 206.435 221.094L205.966 220.957C206.151 219.314 205.964 217.649 205.42 216.098C204.974 214.939 204.21 213.931 203.403 212.867C203.216 212.62 203.026 212.37 202.838 212.114L202.837 212.113C202.01 210.988 200.329 211.343 199.981 212.661C200.499 213.003 200.779 213.581 200.792 214.134C200.8 214.479 200.706 214.836 200.479 215.132C200.336 215.319 200.15 215.469 199.928 215.574C200.331 218.989 202.457 222.107 205.356 223.653ZM209.698 216.196C210.9 215.447 211.887 214.258 212.324 212.877C212.026 212.826 211.748 212.694 211.534 212.498C211.325 212.306 211.166 212.041 211.132 211.721C211.097 211.399 211.195 211.077 211.399 210.782L211.408 210.769L211.417 210.757C211.547 210.592 211.677 210.427 211.806 210.263L211.808 210.262C211.847 210.212 211.887 210.161 211.927 210.111C211.371 209.597 210.853 209.459 210.432 209.51C209.925 209.572 209.419 209.926 209.042 210.56C208.29 211.824 208.169 214.051 209.686 216.18L209.698 216.196Z" fill="#8D8AD5" stroke="#0775B4"/>
<path d="M169.918 150.915L159.447 143.111C158.63 142.502 158.073 141.574 157.905 140.528C157.737 139.481 157.974 138.409 158.56 137.55C158.86 137.109 159.243 136.738 159.683 136.46C160.122 136.181 160.61 136 161.117 135.927C161.624 135.853 162.139 135.889 162.633 136.031C163.127 136.174 163.589 136.421 163.991 136.758L174.189 145.315L169.918 150.915Z" fill="#0775B4" stroke="#0775B4"/>
<path d="M164.274 145.198L158.654 157.511L152.483 154.454L157.369 141.964L156.903 141.782L157.369 141.964C157.559 141.479 157.837 141.039 158.188 140.669C158.539 140.299 158.954 140.006 159.411 139.806C159.867 139.606 160.356 139.502 160.849 139.5C161.342 139.498 161.832 139.597 162.29 139.793C162.764 139.996 163.196 140.299 163.557 140.685C163.919 141.07 164.203 141.53 164.39 142.037C164.577 142.544 164.663 143.086 164.643 143.63C164.624 144.174 164.498 144.708 164.274 145.198Z" fill="#0775B4" stroke="#0775B4"/>
<path d="M265.954 214C265.954 222.03 259.743 228.5 252.129 228.5C244.515 228.5 238.303 222.03 238.303 214C238.303 205.97 244.515 199.5 252.129 199.5C259.743 199.5 265.954 205.97 265.954 214Z" fill="#8CB0C5" stroke="#0775B4"/>
<mask id="path-24-inside-3_761_1372" fill="white">
<path d="M314.484 147.412C314.435 147.412 314.404 147.411 314.393 147.41L308.473 147.411V146.494H314.414C314.552 146.499 317.359 146.582 319.945 143.286C323.798 138.373 326.963 126.211 320.155 96.1713C311 55.7785 318.635 20.0937 322.343 6.62625C322.526 5.95996 322.558 5.25817 322.439 4.57633C322.319 3.89449 322.049 3.25129 321.652 2.69754C321.255 2.14379 320.741 1.69466 320.15 1.38564C319.559 1.07663 318.908 0.9162 318.248 0.917024H229.833C229.161 0.917971 228.499 1.08541 227.9 1.40575C227.301 1.72608 226.782 2.1903 226.386 2.7607C224.815 5.03042 222.66 9.39076 221.311 17.275L220.452 17.1129C221.83 9.05739 224.055 4.56877 225.68 2.22159C226.157 1.53428 226.782 0.974914 227.504 0.588911C228.225 0.202907 229.024 0.00114206 229.833 2.49523e-06H318.248C319.043 -0.00080152 319.828 0.192708 320.54 0.565242C321.252 0.937777 321.871 1.47913 322.35 2.14653C322.829 2.81393 323.153 3.58909 323.297 4.41078C323.441 5.23246 323.402 6.07815 323.182 6.88103C319.493 20.2786 311.897 55.7783 321.004 95.9591C327.908 126.421 324.589 138.847 320.589 143.906C317.951 147.243 315.044 147.412 314.484 147.412Z"/>
</mask>
<path d="M314.484 147.412C314.435 147.412 314.404 147.411 314.393 147.41L308.473 147.411V146.494H314.414C314.552 146.499 317.359 146.582 319.945 143.286C323.798 138.373 326.963 126.211 320.155 96.1713C311 55.7785 318.635 20.0937 322.343 6.62625C322.526 5.95996 322.558 5.25817 322.439 4.57633C322.319 3.89449 322.049 3.25129 321.652 2.69754C321.255 2.14379 320.741 1.69466 320.15 1.38564C319.559 1.07663 318.908 0.9162 318.248 0.917024H229.833C229.161 0.917971 228.499 1.08541 227.9 1.40575C227.301 1.72608 226.782 2.1903 226.386 2.7607C224.815 5.03042 222.66 9.39076 221.311 17.275L220.452 17.1129C221.83 9.05739 224.055 4.56877 225.68 2.22159C226.157 1.53428 226.782 0.974914 227.504 0.588911C228.225 0.202907 229.024 0.00114206 229.833 2.49523e-06H318.248C319.043 -0.00080152 319.828 0.192708 320.54 0.565242C321.252 0.937777 321.871 1.47913 322.35 2.14653C322.829 2.81393 323.153 3.58909 323.297 4.41078C323.441 5.23246 323.402 6.07815 323.182 6.88103C319.493 20.2786 311.897 55.7783 321.004 95.9591C327.908 126.421 324.589 138.847 320.589 143.906C317.951 147.243 315.044 147.412 314.484 147.412Z" fill="#DFDDDD"/>
<path d="M314.393 147.41L314.455 146.412L314.424 146.41H314.393L314.393 147.41ZM308.473 147.411H307.473V148.411L308.473 148.411L308.473 147.411ZM308.473 146.494V145.494H307.473V146.494H308.473ZM314.414 146.494L314.452 145.495L314.433 145.494H314.414V146.494ZM319.945 143.286L320.731 143.903L320.731 143.903L319.945 143.286ZM320.155 96.1713L319.18 96.3923V96.3923L320.155 96.1713ZM322.343 6.62625L323.307 6.89167L323.308 6.89066L322.343 6.62625ZM318.248 0.917024V1.91703L318.249 1.91702L318.248 0.917024ZM229.833 0.917024V-0.0829767L229.832 -0.0829748L229.833 0.917024ZM226.386 2.7607L225.564 2.19014L225.563 2.19167L226.386 2.7607ZM221.311 17.275L221.125 18.2576L222.125 18.4462L222.296 17.4436L221.311 17.275ZM220.452 17.1129L219.466 16.9443L219.3 17.9133L220.266 18.0956L220.452 17.1129ZM225.68 2.22159L224.858 1.65114L224.857 1.65254L225.68 2.22159ZM229.833 2.49523e-06V-0.999999L229.832 -0.999997L229.833 2.49523e-06ZM318.248 2.49523e-06V1L318.249 1L318.248 2.49523e-06ZM323.182 6.88103L324.146 7.14647L324.146 7.14558L323.182 6.88103ZM321.004 95.9591L321.979 95.738V95.738L321.004 95.9591ZM320.589 143.906L321.374 144.527L321.374 144.527L320.589 143.906ZM314.484 146.412C314.469 146.412 314.458 146.412 314.452 146.412C314.449 146.412 314.447 146.412 314.447 146.412C314.447 146.412 314.448 146.412 314.449 146.412C314.45 146.412 314.452 146.412 314.455 146.412L314.331 148.408C314.367 148.411 314.419 148.412 314.484 148.412V146.412ZM314.393 146.41L308.473 146.411L308.473 148.411L314.393 148.41L314.393 146.41ZM309.473 147.411V146.494H307.473V147.411H309.473ZM308.473 147.494H314.414V145.494H308.473V147.494ZM314.377 147.493C314.713 147.506 317.883 147.534 320.731 143.903L319.158 142.669C317.982 144.167 316.787 144.863 315.91 145.192C315.468 145.358 315.098 145.433 314.841 145.467C314.713 145.484 314.613 145.491 314.547 145.494C314.514 145.495 314.489 145.495 314.474 145.495C314.466 145.495 314.46 145.495 314.457 145.495C314.454 145.495 314.452 145.495 314.452 145.495L314.377 147.493ZM320.731 143.903C322.826 141.233 324.617 136.742 325.046 129.208C325.475 121.673 324.546 111.023 321.13 95.9503L319.18 96.3923C322.572 111.36 323.464 121.811 323.05 129.094C322.635 136.38 320.917 140.426 319.158 142.669L320.731 143.903ZM321.13 95.9503C312.027 55.7841 319.621 20.2818 323.307 6.89167L321.379 6.36082C317.65 19.9055 309.974 55.7729 319.18 96.3923L321.13 95.9503ZM323.308 6.89066C323.529 6.0815 323.569 5.23025 323.423 4.40315L321.454 4.74952C321.548 5.28609 321.522 5.83842 321.379 6.36184L323.308 6.89066ZM323.423 4.40315C323.278 3.57599 322.951 2.79233 322.465 2.11468L320.84 3.2804C321.148 3.71025 321.359 4.21299 321.454 4.74952L323.423 4.40315ZM322.465 2.11468C321.979 1.43685 321.346 0.882589 320.613 0.499519L319.686 2.27177C320.136 2.50673 320.531 2.85073 320.84 3.2804L322.465 2.11468ZM320.613 0.499519C319.881 0.116308 319.07 -0.0840029 318.247 -0.082975L318.249 1.91702C318.746 1.9164 319.237 2.03696 319.686 2.27177L320.613 0.499519ZM318.248 -0.0829757H229.833V1.91702H318.248V-0.0829757ZM229.832 -0.0829748C228.994 -0.081794 228.17 0.127077 227.428 0.523906L228.371 2.28758C228.827 2.04374 229.329 1.91774 229.835 1.91702L229.832 -0.0829748ZM227.428 0.523906C226.686 0.920586 226.049 1.49279 225.564 2.19014L227.207 3.33126C227.515 2.8878 227.915 2.53158 228.371 2.28758L227.428 0.523906ZM225.563 2.19167C223.894 4.60437 221.693 9.10878 220.325 17.1064L222.296 17.4436C223.626 9.67274 225.736 5.45647 227.208 3.32974L225.563 2.19167ZM221.496 16.2923L220.637 16.1302L220.266 18.0956L221.125 18.2576L221.496 16.2923ZM221.437 17.2815C222.796 9.34132 224.976 4.99618 226.502 2.79065L224.857 1.65254C223.135 4.14137 220.864 8.77346 219.466 16.9443L221.437 17.2815ZM226.501 2.79204C226.89 2.23171 227.396 1.78036 227.975 1.47072L227.032 -0.292896C226.167 0.169469 225.424 0.836852 224.858 1.65115L226.501 2.79204ZM227.975 1.47072C228.554 1.16123 229.191 1.00091 229.835 1L229.832 -0.999997C228.856 -0.998624 227.897 -0.755411 227.032 -0.292896L227.975 1.47072ZM229.833 1H318.248V-0.999997H229.833V1ZM318.249 1C318.881 0.999363 319.506 1.15296 320.076 1.45127L321.003 -0.320785C320.15 -0.767543 319.206 -1.00097 318.247 -0.999997L318.249 1ZM320.076 1.45127C320.647 1.74971 321.148 2.18592 321.537 2.72924L323.163 1.56382C322.595 0.772344 321.857 0.125839 321.003 -0.320785L320.076 1.45127ZM321.537 2.72924C321.927 3.27274 322.193 3.90745 322.312 4.5838L324.282 4.23775C324.112 3.27074 323.73 2.35512 323.163 1.56382L321.537 2.72924ZM322.312 4.5838C322.431 5.26022 322.398 5.95646 322.217 6.61648L324.146 7.14558C324.406 6.19984 324.452 5.20469 324.282 4.23775L322.312 4.5838ZM322.218 6.61559C318.508 20.0904 310.871 55.7727 320.029 96.1801L321.979 95.738C312.924 55.7839 320.479 20.4668 324.146 7.14647L322.218 6.61559ZM320.029 96.1801C323.469 111.357 324.346 121.978 323.887 129.397C323.429 136.816 321.638 140.967 319.805 143.286L321.374 144.527C323.54 141.786 325.409 137.194 325.884 129.521C326.358 121.846 325.443 111.023 321.979 95.738L320.029 96.1801ZM319.805 143.286C317.411 146.314 314.839 146.412 314.484 146.412V148.412C315.249 148.412 318.491 148.173 321.374 144.527L319.805 143.286Z" fill="#0775B4" mask="url(#path-24-inside-3_761_1372)"/>
<mask id="path-26-inside-4_761_1372" fill="white">
<path d="M298.446 164.206C298.397 164.206 298.365 164.205 298.355 164.204L292.434 164.205V163.288H298.376C298.514 163.292 301.32 163.376 303.906 160.08C307.76 155.167 310.925 143.005 304.116 112.965C294.962 72.5724 302.597 36.8876 306.305 23.4202C306.487 22.7539 306.52 22.0521 306.4 21.3703C306.28 20.6884 306.011 20.0452 305.614 19.4915C305.217 18.9377 304.702 18.4886 304.111 18.1796C303.521 17.8706 302.869 17.7101 302.209 17.711H213.795C213.123 17.7119 212.46 17.8794 211.861 18.1997C211.262 18.52 210.743 18.9842 210.347 19.5546C208.777 21.8244 206.621 26.1847 205.272 34.0689L204.413 33.9068C205.791 25.8513 208.017 21.3627 209.641 19.0155C210.119 18.3282 210.743 17.7689 211.465 17.3829C212.187 16.9969 212.985 16.7951 213.795 16.7939H302.209C303.005 16.7931 303.789 16.9867 304.501 17.3592C305.213 17.7317 305.833 18.2731 306.312 18.9405C306.79 19.6079 307.114 20.383 307.259 21.2047C307.403 22.0264 307.364 22.8721 307.143 23.675C303.455 37.0725 295.859 72.5722 304.966 112.753C311.87 143.215 308.551 155.641 304.551 160.7C301.912 164.037 299.005 164.206 298.446 164.206Z"/>
</mask>
<path d="M298.446 164.206C298.397 164.206 298.365 164.205 298.355 164.204L292.434 164.205V163.288H298.376C298.514 163.292 301.32 163.376 303.906 160.08C307.76 155.167 310.925 143.005 304.116 112.965C294.962 72.5724 302.597 36.8876 306.305 23.4202C306.487 22.7539 306.52 22.0521 306.4 21.3703C306.28 20.6884 306.011 20.0452 305.614 19.4915C305.217 18.9377 304.702 18.4886 304.111 18.1796C303.521 17.8706 302.869 17.7101 302.209 17.711H213.795C213.123 17.7119 212.46 17.8794 211.861 18.1997C211.262 18.52 210.743 18.9842 210.347 19.5546C208.777 21.8244 206.621 26.1847 205.272 34.0689L204.413 33.9068C205.791 25.8513 208.017 21.3627 209.641 19.0155C210.119 18.3282 210.743 17.7689 211.465 17.3829C212.187 16.9969 212.985 16.7951 213.795 16.7939H302.209C303.005 16.7931 303.789 16.9867 304.501 17.3592C305.213 17.7317 305.833 18.2731 306.312 18.9405C306.79 19.6079 307.114 20.383 307.259 21.2047C307.403 22.0264 307.364 22.8721 307.143 23.675C303.455 37.0725 295.859 72.5722 304.966 112.753C311.87 143.215 308.551 155.641 304.551 160.7C301.912 164.037 299.005 164.206 298.446 164.206Z" fill="#BFBFC0"/>
<path d="M298.355 164.204L298.416 163.206L298.385 163.204H298.354L298.355 164.204ZM292.434 164.205H291.434V165.205L292.434 165.205L292.434 164.205ZM292.434 163.288V162.288H291.434V163.288H292.434ZM298.376 163.288L298.408 162.288L298.392 162.288H298.376V163.288ZM303.906 160.08L304.693 160.697L304.693 160.697L303.906 160.08ZM304.116 112.965L303.141 113.186L304.116 112.965ZM306.305 23.4202L307.269 23.6856L307.269 23.6846L306.305 23.4202ZM302.209 17.711V18.711L302.211 18.711L302.209 17.711ZM213.795 17.711V16.711L213.794 16.711L213.795 17.711ZM210.347 19.5546L209.526 18.9841L209.525 18.9856L210.347 19.5546ZM205.272 34.0689L205.087 35.0516L206.087 35.2402L206.258 34.2375L205.272 34.0689ZM204.413 33.9068L203.428 33.7382L203.262 34.7073L204.228 34.8895L204.413 33.9068ZM209.641 19.0155L208.82 18.4451L208.819 18.4465L209.641 19.0155ZM213.795 16.7939V15.7939L213.794 15.7939L213.795 16.7939ZM302.209 16.7939V17.7939L302.21 17.7939L302.209 16.7939ZM307.143 23.675L308.107 23.9404L308.108 23.9395L307.143 23.675ZM304.966 112.753L305.941 112.532L304.966 112.753ZM304.551 160.7L305.335 161.321L305.335 161.32L304.551 160.7ZM298.446 163.206C298.43 163.206 298.419 163.206 298.413 163.206C298.41 163.206 298.409 163.206 298.409 163.206C298.409 163.206 298.409 163.206 298.41 163.206C298.411 163.206 298.413 163.206 298.416 163.206L298.293 165.202C298.329 165.205 298.381 165.206 298.446 165.206V163.206ZM298.354 163.204L292.434 163.205L292.434 165.205L298.355 165.204L298.354 163.204ZM293.434 164.205V163.288H291.434V164.205H293.434ZM292.434 164.288H298.376V162.288H292.434V164.288ZM298.344 164.287C298.675 164.298 301.844 164.329 304.693 160.697L303.119 159.463C301.944 160.961 300.749 161.657 299.872 161.985C299.43 162.151 299.06 162.227 298.803 162.261C298.674 162.278 298.574 162.285 298.508 162.287C298.443 162.29 298.409 162.288 298.408 162.288L298.344 164.287ZM304.693 160.697C306.788 158.027 308.579 153.536 309.008 146.002C309.437 138.467 308.508 127.817 305.092 112.744L303.141 113.186C306.533 128.154 307.426 138.605 307.011 145.888C306.596 153.174 304.878 157.22 303.119 159.463L304.693 160.697ZM305.092 112.744C295.988 72.578 303.582 37.0758 307.269 23.6856L305.341 23.1548C301.612 36.6995 293.935 72.5668 303.141 113.186L305.092 112.744ZM307.269 23.6846C307.491 22.8754 307.53 22.0242 307.385 21.1971L305.415 21.5435C305.51 22.08 305.484 22.6324 305.34 23.1558L307.269 23.6846ZM307.385 21.1971C307.24 20.3699 306.912 19.5863 306.426 18.9086L304.801 20.0743C305.11 20.5042 305.321 21.0069 305.415 21.5435L307.385 21.1971ZM306.426 18.9086C305.94 18.2308 305.307 17.6765 304.575 17.2935L303.648 19.0657C304.097 19.3007 304.493 19.6447 304.801 20.0743L306.426 18.9086ZM304.575 17.2935C303.842 16.9103 303.032 16.7099 302.208 16.711L302.211 18.711C302.707 18.7103 303.199 18.8309 303.648 19.0657L304.575 17.2935ZM302.209 16.711H213.795V18.711H302.209V16.711ZM213.794 16.711C212.956 16.7122 212.132 16.921 211.39 17.3179L212.333 19.0815C212.789 18.8377 213.29 18.7117 213.796 18.711L213.794 16.711ZM211.39 17.3179C210.648 17.7145 210.01 18.2867 209.526 18.9841L211.168 20.1252C211.477 19.6817 211.877 19.3255 212.333 19.0815L211.39 17.3179ZM209.525 18.9856C207.855 21.3983 205.655 25.9027 204.287 33.9003L206.258 34.2375C207.587 26.4667 209.698 22.2504 211.17 20.1237L209.525 18.9856ZM205.458 33.0863L204.599 32.9242L204.228 34.8895L205.087 35.0516L205.458 33.0863ZM205.399 34.0755C206.757 26.1353 208.937 21.7901 210.463 19.5846L208.819 18.4465C207.097 20.9353 204.825 25.5674 203.428 33.7382L205.399 34.0755ZM210.463 19.586C210.852 19.0256 211.358 18.5743 211.937 18.2647L210.994 16.501C210.129 16.9634 209.385 17.6308 208.82 18.4451L210.463 19.586ZM211.937 18.2647C212.515 17.9552 213.152 17.7949 213.796 17.7939L213.794 15.7939C212.818 15.7953 211.858 16.0385 210.994 16.501L211.937 18.2647ZM213.795 17.7939H302.209V15.7939H213.795V17.7939ZM302.21 17.7939C302.842 17.7933 303.468 17.9469 304.038 18.2452L304.965 16.4732C304.111 16.0264 303.167 15.793 302.208 15.7939L302.21 17.7939ZM304.038 18.2452C304.608 18.5437 305.109 18.9799 305.499 19.5232L307.124 18.3578C306.557 17.5663 305.819 16.9198 304.965 16.4732L304.038 18.2452ZM305.499 19.5232C305.889 20.0667 306.155 20.7014 306.274 21.3777L308.244 21.0317C308.074 20.0647 307.692 19.1491 307.124 18.3578L305.499 19.5232ZM306.274 21.3777C306.393 22.0542 306.36 22.7504 306.179 23.4104L308.108 23.9395C308.367 22.9938 308.413 21.9986 308.244 21.0317L306.274 21.3777ZM306.179 23.4095C302.469 36.8844 294.832 72.5666 303.99 112.974L305.941 112.532C296.886 72.5778 304.44 37.2607 308.107 23.9404L306.179 23.4095ZM303.99 112.974C307.43 128.151 308.308 138.772 307.849 146.191C307.39 153.61 305.599 157.761 303.766 160.08L305.335 161.32C307.502 158.58 309.371 153.988 309.845 146.314C310.32 138.64 309.405 127.817 305.941 112.532L303.99 112.974ZM303.766 160.08C301.372 163.108 298.8 163.206 298.446 163.206V165.206C299.211 165.206 302.452 164.966 305.335 161.321L303.766 160.08Z" fill="#0775B4" mask="url(#path-26-inside-4_761_1372)"/>
<path d="M197.804 34.0874C197.805 34.0874 197.805 34.0874 197.805 34.0874L191.014 173.793C194.213 165.394 198.457 145.407 191.446 105.285C191.445 105.28 191.444 105.275 191.443 105.27C183.208 58.1302 190.576 41.1658 194.041 36.128C194.041 36.1278 194.041 36.1276 194.041 36.1274C194.049 36.1162 194.056 36.105 194.064 36.0939C194.49 35.4804 195.044 34.9815 195.68 34.6344C195.691 34.6286 195.702 34.6229 195.712 34.6172C196.362 34.2696 197.078 34.0886 197.804 34.0874Z" fill="black" stroke="#0775B4"/>
<path d="M271.599 74.1392H201.976C201.19 74.1392 200.429 73.8069 199.863 73.204C199.297 72.5999 198.973 71.7743 198.973 70.9073C198.973 70.0402 199.297 69.2146 199.863 68.6106C200.429 68.0076 201.19 67.6753 201.976 67.6753H271.599C272.385 67.6753 273.145 68.0076 273.711 68.6106C274.278 69.2146 274.602 70.0402 274.602 70.9073C274.602 71.7743 274.278 72.5999 273.711 73.204C273.145 73.8069 272.385 74.1392 271.599 74.1392Z" fill="#399FD8" stroke="#0775B4"/>
<path d="M271.599 89.689H201.976C201.19 89.689 200.429 89.3567 199.863 88.7538C199.297 88.1497 198.973 87.3241 198.973 86.4571C198.973 85.59 199.297 84.7644 199.863 84.1604C200.429 83.5574 201.19 83.2251 201.976 83.2251H271.599C272.385 83.2251 273.145 83.5574 273.711 84.1604C274.278 84.7644 274.602 85.59 274.602 86.4571C274.602 87.3241 274.278 88.1497 273.711 88.7538C273.145 89.3567 272.385 89.689 271.599 89.689Z" fill="#399FD8" stroke="#0775B4"/>
<path d="M271.599 105.239H201.976C201.19 105.239 200.429 104.907 199.863 104.304C199.297 103.7 198.973 102.874 198.973 102.007C198.973 101.14 199.297 100.314 199.863 99.7102C200.429 99.1072 201.19 98.7749 201.976 98.7749H271.599C272.385 98.7749 273.145 99.1072 273.711 99.7102C274.278 100.314 274.602 101.14 274.602 102.007C274.602 102.874 274.278 103.7 273.711 104.304C273.145 104.907 272.385 105.239 271.599 105.239Z" fill="#399FD8" stroke="#0775B4"/>
<path d="M276.378 120.789H207.295C206.518 120.789 205.764 120.457 205.203 119.855C204.641 119.251 204.319 118.425 204.319 117.557C204.319 116.688 204.641 115.862 205.203 115.259C205.764 114.656 206.518 114.325 207.295 114.325H276.378C277.156 114.325 277.909 114.656 278.47 115.259C279.033 115.862 279.354 116.688 279.354 117.557C279.354 118.425 279.033 119.251 278.47 119.855C277.909 120.457 277.156 120.789 276.378 120.789Z" fill="#399FD8" stroke="#0775B4"/>
<path d="M276.378 136.338H207.295C206.518 136.338 205.764 136.007 205.203 135.405C204.641 134.801 204.319 133.975 204.319 133.106C204.319 132.238 204.641 131.412 205.203 130.808C205.764 130.206 206.518 129.875 207.295 129.875H276.378C277.156 129.875 277.909 130.206 278.47 130.808C279.033 131.412 279.354 132.238 279.354 133.106C279.354 133.975 279.033 134.801 278.47 135.405C277.909 136.007 277.156 136.338 276.378 136.338Z" fill="#399FD8" stroke="#0775B4"/>
<path d="M234.774 58.5894H201.972C201.187 58.5894 200.428 58.2573 199.862 57.6544C199.296 57.0504 198.973 56.2246 198.973 55.3574C198.973 54.4902 199.296 53.6645 199.862 53.0605C200.428 52.4576 201.187 52.1255 201.972 52.1255H234.774C235.558 52.1255 236.318 52.4576 236.883 53.0605C237.449 53.6645 237.773 54.4902 237.773 55.3574C237.773 56.2246 237.449 57.0504 236.883 57.6544C236.318 58.2573 235.558 58.5894 234.774 58.5894Z" fill="#399FD8" stroke="#0775B4"/>
<path d="M230.16 161.723L230.159 161.727C230.15 161.767 230.137 161.786 230.132 161.793C230.126 161.8 230.122 161.804 230.116 161.807C230.102 161.814 230.063 161.824 230.005 161.807C229.948 161.791 229.906 161.758 229.884 161.726C229.869 161.704 229.852 161.667 229.869 161.591C230.478 158.954 233.022 157.411 235.638 157.099C237.279 156.968 238.93 157.085 240.538 157.448L240.547 157.45L240.555 157.451C242.294 157.778 244.018 158.198 245.734 158.666C247.549 159.16 249.333 159.706 251.127 160.255C252.336 160.625 253.55 160.996 254.779 161.353C257.221 162.063 259.81 162.682 262.441 162.577C263.31 162.542 264.211 162.404 265.077 162.139C265.186 162.227 265.295 162.313 265.405 162.399C265.328 162.425 265.251 162.451 265.173 162.475C262.646 163.261 259.858 162.935 257.216 162.341C255.078 161.861 252.994 161.209 250.889 160.55C249.862 160.229 248.829 159.906 247.783 159.6C246.064 159.098 244.33 158.623 242.577 158.222C240.884 157.786 239.157 157.506 237.416 157.386L237.416 157.386L237.402 157.385C235.985 157.327 234.39 157.557 233.041 158.222C231.68 158.893 230.554 160.017 230.16 161.723ZM266.468 161.949C266.367 161.875 266.267 161.8 266.168 161.724C266.281 161.672 266.392 161.618 266.502 161.561C266.598 161.633 266.695 161.704 266.793 161.774C266.686 161.835 266.578 161.893 266.468 161.949ZM267.385 162.587C267.489 162.526 267.593 162.462 267.695 162.397C267.973 162.579 268.255 162.756 268.54 162.926C269.805 163.765 271.226 164.329 272.714 164.582L272.724 164.583L272.734 164.585C273.893 164.733 275.233 164.492 276.325 163.876C277.424 163.254 278.314 162.222 278.443 160.786C278.45 160.709 278.479 160.671 278.508 160.648C278.544 160.619 278.6 160.598 278.66 160.598C278.721 160.598 278.748 160.618 278.752 160.621C278.752 160.622 278.752 160.622 278.753 160.622C278.753 160.623 278.754 160.624 278.755 160.627C278.757 160.632 278.763 160.652 278.759 160.696L278.759 160.696L278.758 160.703C278.715 161.268 278.56 161.817 278.301 162.317C277.135 164.526 274.397 165.317 272.012 164.798C270.532 164.42 269.13 163.777 267.869 162.897L267.858 162.889L267.847 162.882C267.691 162.786 267.537 162.687 267.385 162.587ZM265.624 160.872C265.512 160.921 265.399 160.968 265.284 161.012C264.959 160.734 264.641 160.447 264.331 160.149C262.471 158.274 261.394 155.55 262.497 153.119C263.437 151.049 265.861 150.519 267.871 151.49C270.009 152.522 270.862 155.023 270.252 157.39C269.851 158.946 268.917 160.244 267.687 161.184C267.599 161.122 267.51 161.059 267.423 160.996C268.04 160.55 268.591 159.999 269.036 159.327C269.704 158.32 270.132 157.046 270.136 155.796C270.14 154.539 269.713 153.277 268.636 152.376C267.765 151.646 266.61 151.271 265.519 151.367C264.411 151.465 263.364 152.054 262.789 153.235C262.11 154.633 262.256 156.058 262.79 157.313C263.319 158.559 264.239 159.665 265.17 160.49L265.17 160.49L265.175 160.494C265.323 160.622 265.473 160.748 265.624 160.872Z" fill="black" stroke="#0775B4"/>
<path d="M160.891 23.1069L160.843 23.4156C160.973 23.436 161.088 23.5593 161.088 23.7256V25.375C161.088 25.418 161.08 25.4603 161.065 25.4993C161.049 25.5383 161.027 25.5728 161 25.6012C160.973 25.6296 160.941 25.6513 160.908 25.6658C160.874 25.6803 160.839 25.6875 160.803 25.6875H160.803H160.802H160.801C155.897 25.6947 152.158 21.7549 152.163 16.6272V16.6269C152.163 16.4391 152.305 16.3125 152.447 16.3125H154.023C154.152 16.3125 154.281 16.4142 154.304 16.5778C154.412 17.3404 154.624 18.0831 154.933 18.7832L154.933 18.7835L154.995 18.922C154.995 18.9221 154.995 18.9221 154.995 18.9221C155.008 18.9514 155.011 18.9855 155.003 19.0177C154.995 19.0498 154.977 19.0749 154.956 19.0906L155.143 19.3406M160.891 23.1069L160.843 23.4157C160.111 23.3021 159.398 23.079 158.727 22.7531C158.727 22.753 158.727 22.753 158.727 22.753L158.595 22.6895L158.595 22.6893C158.574 22.6789 158.551 22.6771 158.529 22.683C158.508 22.689 158.485 22.7037 158.469 22.7284L158.468 22.7285C158.036 23.3629 157.14 23.6294 156.43 23.1135L156.429 23.1132C155.711 22.5895 155.088 21.9366 154.589 21.1854M160.891 23.1069C160.19 22.9981 159.507 22.7844 158.863 22.4719L158.731 22.4081C158.642 22.3648 158.541 22.3555 158.446 22.3818C158.351 22.4082 158.267 22.4686 158.21 22.5525C157.862 23.0631 157.161 23.2581 156.614 22.8606C155.925 22.3591 155.328 21.7333 154.849 21.0125M160.891 23.1069L155.281 18.7956C155.322 18.889 155.331 18.9945 155.306 19.094C155.281 19.1935 155.223 19.2807 155.143 19.3406M154.589 21.1854L154.849 21.0125M154.589 21.1854L154.849 21.0125M154.589 21.1854C154.109 20.4626 154.347 19.5456 154.956 19.0903L155.143 19.3406M154.849 21.0125C154.469 20.44 154.655 19.7056 155.143 19.3406" fill="#7170DA" stroke="#0775B4" stroke-width="0.625"/>
<circle cx="158" cy="21" r="14" stroke="#0775B4" stroke-width="2"/>
</svg>
