<svg width="603" height="609" viewBox="0 0 603 609" fill="none" xmlns="http://www.w3.org/2000/svg">
<path d="M0 0L0.856916 5.70956L5.37308 2.11267L0 0ZM272 48L271.755 47.5639L272 48ZM600 204L602.656 198.874L596.889 199.136L600 204ZM2.41702 3.83723C2.52496 3.96867 2.63341 4.10029 2.74237 4.23209L3.5131 3.59493C3.40483 3.46397 3.29708 3.33319 3.18983 3.20259L2.41702 3.83723ZM9.38646 11.7925C11.603 14.1737 13.9672 16.587 16.4745 19.0135L17.17 18.2949C14.675 15.8803 12.323 13.4794 10.1184 11.1111L9.38646 11.7925ZM23.8664 25.8279C26.3354 27.9976 28.9149 30.164 31.6014 32.3135L32.2262 31.5326C29.5517 29.3928 26.9841 27.2364 24.5265 25.0767L23.8664 25.8279ZM39.6195 38.4364C42.2873 40.3801 45.0438 42.2985 47.8867 44.1811L48.4388 43.3473C45.6086 41.4731 42.8643 39.5632 40.2084 37.6282L39.6195 38.4364ZM56.4138 49.5565C59.2617 51.2634 62.1848 52.9291 65.1809 54.5446L65.6555 53.6643C62.673 52.0562 59.7631 50.3981 56.9279 48.6987L56.4138 49.5565ZM74.1701 59.1273C77.1685 60.5695 80.2318 61.9577 83.3581 63.2842L83.7487 62.3636C80.6372 61.0434 77.5881 59.6616 74.6035 58.2262L74.1701 59.1273ZM92.7238 66.9968C95.8469 68.1487 99.0265 69.2365 102.261 70.253L102.561 69.299C99.3421 68.2874 96.178 67.205 93.0699 66.0585L92.7238 66.9968ZM111.949 73.0359C115.172 73.8753 118.444 74.642 121.765 75.3299L121.968 74.3507C118.664 73.6663 115.408 72.9034 112.201 72.0681L111.949 73.0359ZM131.685 77.1224C134.976 77.6303 138.31 78.0592 141.685 78.4035L141.787 77.4086C138.428 77.0661 135.112 76.6394 131.838 76.1341L131.685 77.1224ZM151.738 79.1669C155.06 79.3331 158.42 79.416 161.817 79.4106L161.815 78.4106C158.436 78.4159 155.093 78.3335 151.788 78.1682L151.738 79.1669ZM171.896 79.1362C175.215 78.961 178.567 78.7003 181.949 78.3499L181.846 77.3552C178.481 77.7039 175.146 77.9632 171.843 78.1376L171.896 79.1362ZM191.955 77.0611C195.241 76.5552 198.553 75.9636 201.892 75.2826L201.693 74.3028C198.369 74.9806 195.072 75.5693 191.803 76.0727L191.955 77.0611ZM211.714 73.0371C214.922 72.2244 218.153 71.3284 221.406 70.3456L221.117 69.3884C217.878 70.3667 214.662 71.2588 211.468 72.0677L211.714 73.0371ZM230.974 67.2245C234.101 66.1289 237.248 64.9525 240.412 63.6926L240.043 62.7635C236.891 64.0183 233.758 65.1898 230.644 66.2807L230.974 67.2245ZM249.719 59.7678C252.747 58.4187 255.792 56.9925 258.852 55.4867L258.411 54.5894C255.362 56.0896 252.329 57.5105 249.312 58.8543L249.719 59.7678ZM267.774 50.8923C269.261 50.0926 270.751 49.2739 272.245 48.4361L271.755 47.5639C270.267 48.3989 268.782 49.2148 267.3 50.0117L267.774 50.8923ZM272.245 48.4361C273.702 47.6186 275.159 46.818 276.615 46.034L276.141 45.1535C274.679 45.9402 273.218 46.7437 271.755 47.5639L272.245 48.4361ZM285.347 41.5283C288.329 40.0558 291.308 38.6521 294.284 37.3158L293.874 36.4035C290.887 37.7449 287.897 39.1538 284.904 40.6317L285.347 41.5283ZM303.287 33.4721C306.374 32.2224 309.456 31.0443 312.532 29.9365L312.193 28.9957C309.105 30.1079 306.011 31.2906 302.912 32.5452L303.287 33.4721ZM321.848 26.7886C324.999 25.7934 328.144 24.8711 331.279 24.0202L331.017 23.0551C327.869 23.9095 324.711 24.8357 321.546 25.835L321.848 26.7886ZM340.859 21.6348C344.077 20.9051 347.285 20.2499 350.482 19.6674L350.302 18.6836C347.092 19.2687 343.87 19.9268 340.638 20.6596L340.859 21.6348ZM360.206 18.113C363.485 17.6622 366.75 17.2874 369.999 16.9867L369.907 15.9909C366.643 16.293 363.363 16.6696 360.07 17.1224L360.206 18.113ZM379.802 16.3002C383.1 16.1435 386.381 16.0626 389.643 16.0557L389.641 15.0557C386.364 15.0627 383.068 15.1439 379.754 15.3013L379.802 16.3002ZM399.497 16.2601C402.79 16.404 406.061 16.6229 409.31 16.9147L409.4 15.9187C406.136 15.6255 402.849 15.4056 399.541 15.2611L399.497 16.2601ZM419.08 18.0196C422.351 18.4661 425.596 18.9865 428.815 19.5785L428.995 18.595C425.762 18.0002 422.502 17.4774 419.216 17.0288L419.08 18.0196ZM438.452 21.5825C441.657 22.3267 444.833 23.1421 447.977 24.0264L448.247 23.0638C445.089 22.1753 441.898 21.3561 438.678 20.6084L438.452 21.5825ZM457.393 26.9102C460.52 27.947 463.612 29.0524 466.668 30.224L467.026 29.2902C463.956 28.1132 460.849 27.0026 457.708 25.961L457.393 26.9102ZM475.776 33.9556C478.789 35.2714 481.764 36.6523 484.698 38.0957L485.14 37.1984C482.192 35.7483 479.203 34.3611 476.176 33.0391L475.776 33.9556ZM493.436 42.643C496.321 44.2284 499.162 45.8751 501.958 47.5805L502.478 46.7268C499.67 45.0136 496.816 43.3593 493.918 41.7666L493.436 42.643ZM510.243 52.8952C512.969 54.7325 515.648 56.6269 518.276 58.5756L518.871 57.7724C516.231 55.8147 513.541 53.9116 510.802 52.0659L510.243 52.8952ZM526.052 64.6192C528.604 66.6974 531.103 68.8285 533.546 71.0094L534.212 70.2634C531.758 68.0724 529.247 65.9315 526.683 63.8437L526.052 64.6192ZM540.739 77.7311C543.09 80.031 545.382 82.3789 547.613 84.7719L548.344 84.09C546.103 81.6857 543.8 79.3269 541.438 77.0163L540.739 77.7311ZM554.156 92.1249C556.286 94.6351 558.352 97.1885 560.352 99.7821L561.143 99.1716C559.135 96.5655 557.059 93.9999 554.918 91.4777L554.156 92.1249ZM566.174 107.721C568.055 110.42 569.866 113.157 571.604 115.929L572.451 115.398C570.705 112.612 568.885 109.862 566.994 107.15L566.174 107.721ZM576.621 124.39C578.228 127.262 579.758 130.166 581.209 133.099L582.105 132.656C580.647 129.707 579.109 126.788 577.493 123.902L576.621 124.39ZM585.342 142.035C586.644 145.056 587.863 148.103 588.996 151.173L589.934 150.827C588.795 147.74 587.57 144.676 586.261 141.639L585.342 142.035ZM592.146 160.493C593.112 163.633 593.988 166.794 594.771 169.971L595.742 169.732C594.954 166.536 594.074 163.357 593.102 160.199L592.146 160.493ZM596.848 179.587C597.448 182.815 597.951 186.057 598.355 189.309L599.347 189.186C598.94 185.914 598.434 182.652 597.832 179.404L596.848 179.587ZM599.27 199.102C599.279 199.246 599.288 199.39 599.296 199.534L600.294 199.475C600.286 199.329 600.277 199.184 600.268 199.039L599.27 199.102Z" fill="#2387C0"/>
<path d="M0 609L1.11184 603.335L5.46233 607.13L0 609ZM256.133 567.588L255.905 568.033L256.133 567.588ZM565 433L567.622 438.144L561.857 437.843L565 433ZM2.58708 605.274C2.69819 605.151 2.80986 605.028 2.92208 604.904L3.66203 605.577C3.55061 605.7 3.43974 605.822 3.32942 605.944L2.58708 605.274ZM9.89642 597.726C12.2033 595.496 14.6718 593.236 17.2964 590.968L17.9502 591.724C15.3395 593.981 12.8848 596.228 10.5915 598.445L9.89642 597.726ZM25.071 584.594C27.6358 582.598 30.3178 580.611 33.1134 578.646L33.6885 579.464C30.9062 581.419 28.2372 583.397 25.6852 585.383L25.071 584.594ZM41.4564 573.072C44.2289 571.313 47.0948 569.585 50.0513 567.898L50.5469 568.766C47.6042 570.445 44.7516 572.166 41.9921 573.917L41.4564 573.072ZM58.8599 563.139C61.7947 561.641 64.8069 560.189 67.894 558.791L68.3064 559.702C65.2338 561.093 62.2357 562.539 59.3145 564.03L58.8599 563.139ZM77.1306 554.87C80.202 553.651 83.3389 552.49 86.5395 551.395L86.8633 552.341C83.6782 553.431 80.5562 554.587 77.4995 555.8L77.1306 554.87ZM96.0904 548.381C99.2651 547.463 102.496 546.612 105.781 545.834L106.012 546.807C102.743 547.581 99.5274 548.428 96.3681 549.341L96.0904 548.381ZM115.589 543.767C118.841 543.166 122.142 542.638 125.489 542.19L125.622 543.181C122.291 543.627 119.007 544.152 115.771 544.751L115.589 543.767ZM135.456 541.109C138.751 540.835 142.088 540.64 145.465 540.529L145.498 541.528C142.138 541.639 138.818 541.833 135.539 542.106L135.456 541.109ZM155.489 540.449C158.792 540.505 162.131 540.642 165.504 540.865L165.438 541.863C162.081 541.641 158.759 541.504 155.472 541.449L155.489 540.449ZM175.485 541.772C178.763 542.149 182.072 542.61 185.409 543.157L185.248 544.144C181.926 543.599 178.633 543.141 175.371 542.765L175.485 541.772ZM195.257 545.007C198.483 545.691 201.735 546.457 205.01 547.308L204.759 548.276C201.498 547.429 198.261 546.666 195.05 545.986L195.257 545.007ZM214.656 550.041C217.81 551.009 220.986 552.058 224.182 553.189L223.848 554.132C220.666 553.005 217.503 551.961 214.362 550.997L214.656 550.041ZM233.583 556.734C236.633 557.955 239.701 559.252 242.785 560.627L242.377 561.541C239.305 560.17 236.249 558.878 233.211 557.662L233.583 556.734ZM251.837 564.869C253.342 565.608 254.85 566.366 256.362 567.144L255.905 568.033C254.398 567.259 252.895 566.503 251.396 565.767L251.837 564.869ZM256.362 567.144C257.853 567.91 259.343 568.659 260.833 569.391L260.392 570.289C258.897 569.554 257.401 568.802 255.905 568.033L256.362 567.144ZM269.766 573.583C272.82 574.948 275.87 576.244 278.916 577.471L278.542 578.398C275.485 577.167 272.423 575.866 269.358 574.496L269.766 573.583ZM288.151 580.987C291.282 582.11 294.408 583.162 297.526 584.144L297.226 585.098C294.095 584.112 290.957 583.056 287.813 581.928L288.151 580.987ZM307.049 586.934C310.255 587.803 313.452 588.599 316.639 589.323L316.418 590.298C313.217 589.571 310.007 588.772 306.787 587.899L307.049 586.934ZM326.326 591.313C329.603 591.915 332.868 592.442 336.119 592.896L335.981 593.887C332.716 593.43 329.437 592.901 326.145 592.297L326.326 591.313ZM345.945 594.053C349.244 594.369 352.527 594.611 355.792 594.78L355.741 595.779C352.461 595.609 349.163 595.366 345.849 595.049L345.945 594.053ZM365.707 595.074C369.029 595.098 372.33 595.048 375.61 594.926L375.647 595.925C372.353 596.048 369.036 596.098 365.699 596.074L365.707 595.074ZM385.483 594.334C388.784 594.062 392.06 593.716 395.31 593.3L395.437 594.291C392.173 594.71 388.881 595.057 385.565 595.331L385.483 594.334ZM405.113 591.815C408.381 591.243 411.62 590.6 414.826 589.887L415.043 590.863C411.822 591.579 408.569 592.226 405.285 592.8L405.113 591.815ZM424.434 587.519C427.631 586.653 430.792 585.717 433.916 584.714L434.222 585.667C431.083 586.674 427.907 587.614 424.695 588.484L424.434 587.519ZM443.269 581.473C446.378 580.315 449.446 579.089 452.469 577.8L452.862 578.719C449.824 580.015 446.742 581.246 443.618 582.41L443.269 581.473ZM461.483 573.705C464.468 572.264 467.405 570.76 470.292 569.195L470.768 570.074C467.868 571.647 464.917 573.158 461.918 574.605L461.483 573.705ZM478.874 564.278C481.709 562.563 484.489 560.789 487.212 558.958L487.77 559.788C485.034 561.628 482.24 563.411 479.392 565.133L478.874 564.278ZM495.297 553.234C497.957 551.251 500.554 549.213 503.088 547.123L503.724 547.894C501.178 549.995 498.567 552.043 495.894 554.036L495.297 553.234ZM510.562 540.634C513.01 538.397 515.389 536.11 517.694 533.774L518.406 534.477C516.088 536.824 513.697 539.124 511.237 541.372L510.562 540.634ZM524.456 526.555C526.657 524.076 528.78 521.551 530.82 518.985L531.603 519.607C529.551 522.188 527.417 524.727 525.204 527.219L524.456 526.555ZM536.754 511.076C538.668 508.368 540.493 505.62 542.227 502.835L543.076 503.364C541.332 506.165 539.496 508.929 537.57 511.653L536.754 511.076ZM547.201 494.281C548.779 491.366 550.258 488.416 551.634 485.438L552.542 485.857C551.157 488.855 549.669 491.823 548.081 494.757L547.201 494.281ZM555.485 476.329C556.672 473.239 557.748 470.122 558.711 466.984L559.667 467.278C558.697 470.438 557.613 473.576 556.418 476.688L555.485 476.329ZM561.271 457.438C562.011 454.219 562.63 450.982 563.124 447.733L564.113 447.883C563.614 451.158 562.991 454.419 562.246 457.662L561.271 457.438ZM564.234 437.917C564.245 437.764 564.256 437.612 564.267 437.459L565.264 437.529C565.254 437.683 565.243 437.837 565.231 437.99L564.234 437.917Z" fill="#2387C0"/>
</svg>
